{"title":"Justin Bieber - As Long As You Love Me ft. Big Sean HD {ECS}","uid":7495443,"size":36837356,"categoryP":"video","categoryS":"music_videos","magnet":"?xt=urn:btih:394a78785ce85aef231cf8601377d01ab248cad2&amp;dn=Justin+Bieber+-+As+Long+As+You+Love+Me+ft.+Big+Sean+HD+%7BECS%7D&amp;tr=udp%3A%2F%2Ftracker.openbittorrent.com%3A80&amp;tr=udp%3A%2F%2Fopen.demonii.com%3A1337&amp;tr=udp%3A%2F%2Ftracker.coppersurfer.tk%3A6969&amp;tr=udp%3A%2F%2Fexodus.desync.com%3A6969","seeders":3,"leechers":0,"uploader":"sameer_ecs","files":4,"time":1343863610,"description":"\nGeneral\nComplete name                  : Justin Bieber - As Long As You Love Me ft. Big Sean  HD {ECS}.mp4\nFormat                         : MPEG-4\nFormat profile                 : Base Media\nCodec ID                       : isom\nFile size                      : 35.0 MiB\nDuration                       : 5mn 51s\nOverall bit rate mode          : Variable\nOverall bit rate               : 835 Kbps\nEncoded date                   : UTC 2012-08-01 17:18:49\nTagged date                    : UTC 2012-08-01 17:18:49\n\nVideo\nID                             : 1\nFormat                         : AVC\nFormat/Info                    : Advanced Video Codec\nFormat profile                 : &lt;a class=&quot;__cf_email__&quot; href=&quot;/cdn-cgi/l/email-protection&quot; data-cfemail=&quot;a6eecfc1cee6ea928897&quot;&gt;[email&amp;#160;protected]&lt;/a&gt;&lt;script cf-hash='f9e31' type=&quot;text/javascript&quot;&gt;\n/* &lt;![CDATA[ */!function(){try{var t=&quot;currentScript&quot;in document?document.currentScript:function(){for(var t=document.getElementsByTagName(&quot;script&quot;),e=t.length;e--;)if(t[e].getAttribute(&quot;cf-hash&quot;))return t[e]}();if(t&amp;&amp;t.previousSibling){var e,r,n,i,c=t.previousSibling,a=c.getAttribute(&quot;data-cfemail&quot;);if(a){for(e=&quot;&quot;,r=parseInt(a.substr(0,2),16),n=2;a.length-n;n+=2)i=parseInt(a.substr(n,2),16)^r,e+=String.fromCharCode(i);e=document.createTextNode(e),c.parentNode.replaceChild(e,c)}}}catch(u){}}();/* ]]&gt; */&lt;/script&gt;\nFormat settings, CABAC         : Yes\nFormat settings, ReFrames      : 3 frames\nCodec ID                       : avc1\nCodec ID/Info                  : Advanced Video Coding\nDuration                       : 5mn 51s\nBit rate mode                  : Variable\nBit rate                       : 704 Kbps\nMaximum bit rate               : 40.0 Mbps\nWidth                          : 1 280 pixels\nHeight                         : 352 pixels\nDisplay aspect ratio           : 3.636\nFrame rate mode                : Constant\nFrame rate                     : 23.976 fps\nColor space                    : YUV\nChroma subsampling             : 4:2:0\nBit depth                      : 8 bits\nScan type                      : Progressive\nBits/(Pixel*Frame)             : 0.065\nStream size                    : 29.5 MiB (84%)\nWriting library                : x264 core 125 r2200 999b753\n\nAudio\nID                             : 2\nFormat                         : AC-3\nFormat/Info                    : Audio Coding 3\nMode extension                 : CM (complete main)\nFormat settings, Endianness    : Big\nCodec ID                       : ac-3\nDuration                       : 5mn 51s\nBit rate mode                  : Constant\nBit rate                       : 128 Kbps\nChannel(s)                     : 2 channels\nChannel positions              : Front: L R\nSampling rate                  : 44.1 KHz\nBit depth                      : 16 bits\nCompression mode               : Lossy\nStream size                    : 5.37 MiB (15%)\n\n &lt;a href=&quot;\nhttp://i1271.photobucket.com/albums/jj629/sameer_ecs/JustinBieber-AsLongAsYouLoveMeftBigSeanHDECSmp4_thumbs_20120801_225303.jpg&quot; rel=&quot;nofollow&quot; target=&quot;_NEW&quot;&gt;\nhttp://i1271.photobucket.com/albums/jj629/sameer_ecs/JustinBieber-AsLongAsYouLoveMeftBigSeanHDECSmp4_thumbs_20120801_225303.jpg&lt;/a&gt;\n","torrent":{"xt":"urn:btih:394a78785ce85aef231cf8601377d01ab248cad2","amp;dn":"Justin+Bieber+-+As+Long+As+You+Love+Me+ft.+Big+Sean+HD+%7BECS%7D","amp;tr":["udp%3A%2F%2Ftracker.openbittorrent.com%3A80","udp%3A%2F%2Fopen.demonii.com%3A1337","udp%3A%2F%2Ftracker.coppersurfer.tk%3A6969","udp%3A%2F%2Fexodus.desync.com%3A6969"],"infoHash":"394a78785ce85aef231cf8601377d01ab248cad2","infoHashBuffer":{"type":"Buffer","data":[57,74,120,120,92,232,90,239,35,28,248,96,19,119,208,26,178,72,202,210]},"announce":[],"urlList":[]}}